<svg width="102" height="21" viewBox="0 0 102 21" fill="none" xmlns="http://www.w3.org/2000/svg">
<g>
<path d="M47.3577 18.6507V2.34931H52.6937C53.8743 2.34931 54.917 2.58995 55.8216 3.07123C56.7263 3.53698 57.4239 4.1968 57.9146 5.05068C58.4206 5.90456 58.6736 6.86712 58.6736 7.93835C58.6736 9.00958 58.4206 9.97214 57.9146 10.826C57.4239 11.6799 56.7263 12.3475 55.8216 12.8288C54.917 13.2945 53.8743 13.5274 52.6937 13.5274H50.8077V18.6507H47.3577ZM55.2926 18.6507L52.0957 11.4315H55.6376L59.0186 18.6507H55.2926ZM52.6937 10.2671C53.215 10.2671 53.6596 10.174 54.0276 9.98767C54.411 9.78584 54.7023 9.51415 54.9016 9.1726C55.1163 8.81552 55.2236 8.4041 55.2236 7.93835C55.2236 7.4726 55.1163 7.06894 54.9016 6.72739C54.7023 6.37031 54.411 6.09862 54.0276 5.91232C53.6596 5.7105 53.215 5.60958 52.6937 5.60958H50.8077V10.2671H52.6937Z" fill="black"/>
<path d="M61.7235 18.6507V2.34931H72.0734V5.60958H65.1735V8.86986H70.5554V12.1301H65.1735V15.3904H72.3034V18.6507H61.7235Z" fill="black"/>
<path d="M73.6744 18.6507L78.0443 2.34931H82.6442L87.0142 18.6507H83.4032L80.3673 6.19178H80.2753L77.2393 18.6507H73.6744ZM76.0433 15.3904L76.9633 12.2466H83.6792L84.5992 15.3904H76.0433Z" fill="black"/>
<path d="M89.5352 18.6507V2.34931H93.1001V15.1575H100V18.6507H89.5352Z" fill="black"/>
<path d="M2 18.6507V2.34931H5.10495L9.72789 11.5479H9.79688V2.34931H13.1318V18.6507H10.0269L5.40395 9.45206H5.33495V18.6507H2Z" fill="black"/>
<path d="M21.3567 19C20.1607 19 19.0951 18.6429 18.1598 17.9288C17.2398 17.1991 16.5268 16.1977 16.0208 14.9247C15.5148 13.6361 15.2618 12.1612 15.2618 10.5C15.2618 8.83881 15.5148 7.37169 16.0208 6.09863C16.5268 4.81005 17.2398 3.80868 18.1598 3.09452C19.0951 2.36484 20.1607 2 21.3567 2C22.5527 2 23.6107 2.36484 24.5307 3.09452C25.466 3.80868 26.1867 4.81005 26.6926 6.09863C27.1986 7.37169 27.4516 8.83881 27.4516 10.5C27.4516 12.1612 27.1986 13.6361 26.6926 14.9247C26.1867 16.1977 25.466 17.1991 24.5307 17.9288C23.6107 18.6429 22.5527 19 21.3567 19ZM21.3567 15.6233C21.8627 15.6233 22.3074 15.4215 22.6907 15.0178C23.074 14.5986 23.3654 14.0087 23.5647 13.2479C23.7794 12.4717 23.8867 11.5557 23.8867 10.5C23.8867 9.44429 23.7794 8.53607 23.5647 7.77534C23.3654 6.99909 23.074 6.40913 22.6907 6.00548C22.3074 5.5863 21.8627 5.37671 21.3567 5.37671C20.8507 5.37671 20.4061 5.5863 20.0227 6.00548C19.6394 6.40913 19.3404 6.99909 19.1258 7.77534C18.9264 8.53607 18.8268 9.44429 18.8268 10.5C18.8268 11.5557 18.9264 12.4717 19.1258 13.2479C19.3404 14.0087 19.6394 14.5986 20.0227 15.0178C20.4061 15.4215 20.8507 15.6233 21.3567 15.6233Z" fill="black"/>
<path d="M33.3536 18.6507V5.84247H29.0986V2.34931H41.1734V5.84247H36.9185V18.6507H33.3536Z" fill="black"/>
</g>
</svg>
